<svg width="120" height="21" viewBox="0 0 120 21" fill="none" xmlns="http://www.w3.org/2000/svg">
<path d="M11.3203 17H9.62402V11.085H3.17285V17H1.48535V4.20312H3.17285V9.70508H9.62402V4.20312H11.3203V17ZM17.0771 12.9658L17.3232 14.6533L17.6836 13.1328L20.2148 4.20312H21.6387L24.1084 13.1328L24.46 14.6797L24.7324 12.957L26.7188 4.20312H28.415L25.3125 17H23.7744L21.1377 7.6748L20.9355 6.69922L20.7334 7.6748L18 17H16.4619L13.3682 4.20312H15.0557L17.0771 12.9658ZM44.1738 12.9395C44.0156 14.293 43.5146 15.3389 42.6709 16.0771C41.833 16.8096 40.7168 17.1758 39.3223 17.1758C37.8105 17.1758 36.5977 16.6338 35.6836 15.5498C34.7754 14.4658 34.3213 13.0156 34.3213 11.1992V9.96875C34.3213 8.7793 34.5322 7.7334 34.9541 6.83105C35.3818 5.92871 35.9854 5.2373 36.7646 4.75684C37.5439 4.27051 38.4463 4.02734 39.4717 4.02734C40.8311 4.02734 41.9209 4.4082 42.7412 5.16992C43.5615 5.92578 44.0391 6.97461 44.1738 8.31641H42.4775C42.3311 7.29688 42.0117 6.55859 41.5195 6.10156C41.0332 5.64453 40.3506 5.41602 39.4717 5.41602C38.3936 5.41602 37.5469 5.81445 36.9316 6.61133C36.3223 7.4082 36.0176 8.54199 36.0176 10.0127V11.252C36.0176 12.6406 36.3076 13.7451 36.8877 14.5654C37.4678 15.3857 38.2793 15.7959 39.3223 15.7959C40.2598 15.7959 40.9775 15.585 41.4756 15.1631C41.9795 14.7354 42.3135 13.9941 42.4775 12.9395H44.1738ZM61.3916 17H59.7656V3.5H61.3916V17ZM65.7686 17H64.1426V3.5H65.7686V17ZM72.3252 17.1758C71.0361 17.1758 69.9873 16.7539 69.1787 15.9102C68.3701 15.0605 67.9658 13.9268 67.9658 12.5088V12.21C67.9658 11.2666 68.1445 10.4258 68.502 9.6875C68.8652 8.94336 69.3691 8.36328 70.0137 7.94727C70.6641 7.52539 71.3672 7.31445 72.123 7.31445C73.3594 7.31445 74.3203 7.72168 75.0059 8.53613C75.6914 9.35059 76.0342 10.5166 76.0342 12.0342V12.7109H69.5918C69.6152 13.6484 69.8877 14.4072 70.4092 14.9873C70.9365 15.5615 71.6045 15.8486 72.4131 15.8486C72.9873 15.8486 73.4736 15.7314 73.8721 15.4971C74.2705 15.2627 74.6191 14.9521 74.918 14.5654L75.9111 15.3389C75.1143 16.5635 73.9189 17.1758 72.3252 17.1758ZM72.123 8.65039C71.4668 8.65039 70.916 8.89062 70.4707 9.37109C70.0254 9.8457 69.75 10.5137 69.6445 11.375H74.4082V11.252C74.3613 10.4258 74.1387 9.78711 73.7402 9.33594C73.3418 8.87891 72.8027 8.65039 72.123 8.65039ZM81.7383 15.8486C82.3184 15.8486 82.8252 15.6729 83.2588 15.3213C83.6924 14.9697 83.9326 14.5303 83.9795 14.0029H85.5176C85.4883 14.5479 85.3008 15.0664 84.9551 15.5586C84.6094 16.0508 84.1465 16.4434 83.5664 16.7363C82.9922 17.0293 82.3828 17.1758 81.7383 17.1758C80.4434 17.1758 79.4121 16.7451 78.6445 15.8838C77.8828 15.0166 77.502 13.833 77.502 12.333V12.0605C77.502 11.1348 77.6719 10.3115 78.0117 9.59082C78.3516 8.87012 78.8379 8.31055 79.4707 7.91211C80.1094 7.51367 80.8623 7.31445 81.7295 7.31445C82.7959 7.31445 83.6807 7.63379 84.3838 8.27246C85.0928 8.91113 85.4707 9.74023 85.5176 10.7598H83.9795C83.9326 10.1445 83.6982 9.64062 83.2764 9.24805C82.8604 8.84961 82.3447 8.65039 81.7295 8.65039C80.9033 8.65039 80.2617 8.94922 79.8047 9.54688C79.3535 10.1387 79.1279 10.9971 79.1279 12.1221V12.4297C79.1279 13.5254 79.3535 14.3691 79.8047 14.9609C80.2559 15.5527 80.9004 15.8486 81.7383 15.8486ZM89.5518 5.1875V7.49023H91.3271V8.74707H89.5518V14.6445C89.5518 15.0254 89.6309 15.3125 89.7891 15.5059C89.9473 15.6934 90.2168 15.7871 90.5977 15.7871C90.7852 15.7871 91.043 15.752 91.3711 15.6816V17C90.9434 17.1172 90.5273 17.1758 90.123 17.1758C89.3965 17.1758 88.8486 16.9561 88.4795 16.5166C88.1104 16.0771 87.9258 15.4531 87.9258 14.6445V8.74707H86.1943V7.49023H87.9258V5.1875H89.5518ZM95.001 17H93.375V7.49023H95.001V17ZM93.2432 4.96777C93.2432 4.7041 93.3223 4.48145 93.4805 4.2998C93.6445 4.11816 93.8848 4.02734 94.2012 4.02734C94.5176 4.02734 94.7578 4.11816 94.9219 4.2998C95.0859 4.48145 95.168 4.7041 95.168 4.96777C95.168 5.23145 95.0859 5.45117 94.9219 5.62695C94.7578 5.80273 94.5176 5.89062 94.2012 5.89062C93.8848 5.89062 93.6445 5.80273 93.4805 5.62695C93.3223 5.45117 93.2432 5.23145 93.2432 4.96777ZM112.544 7.49023L112.597 8.68555C113.323 7.77148 114.272 7.31445 115.444 7.31445C117.454 7.31445 118.468 8.44824 118.485 10.7158V17H116.859V10.707C116.854 10.0215 116.695 9.51465 116.385 9.18652C116.08 8.8584 115.603 8.69434 114.952 8.69434C114.425 8.69434 113.962 8.83496 113.563 9.11621C113.165 9.39746 112.854 9.7666 112.632 10.2236V17H111.006V7.49023H112.544Z" fill="#858585"/>
<path d="M51.3584 5.02391C51.0336 5.06024 50.5752 5.15223 50.2625 5.24434C49.9763 5.32667 49.4405 5.5471 49.1666 5.69487C48.8781 5.85231 48.4005 6.16718 48.1823 6.34406C47.9228 6.55728 47.353 7.15313 47.1688 7.40256C46.6013 8.1704 46.2352 9.03036 46.0557 10.0162C46.0072 10.2923 46 10.4013 46 10.9585C46.0024 11.6319 46.0291 11.9057 46.1455 12.3876C46.3201 13.124 46.691 13.9233 47.1639 14.5774C47.7361 15.3719 48.7471 16.1566 49.6977 16.5491C50.2286 16.7695 50.7087 16.8906 51.344 16.9657C51.9307 17.0384 52.7672 16.9924 53.3467 16.8567C54.2075 16.6557 55.2064 16.1566 55.8563 15.5996C56.5788 14.9819 57.0831 14.3085 57.4978 13.4075C57.6868 12.9957 57.8397 12.4797 57.9294 11.9638C57.9876 11.6173 58.0167 10.9973 57.99 10.6194C57.9586 10.164 57.9512 10.1229 57.8542 9.67466C57.7039 8.99403 57.4178 8.32307 57.025 7.72477C56.7559 7.31301 56.5231 7.03692 56.1327 6.66138C55.221 5.78698 54.0984 5.24434 52.7868 5.04813C52.4374 4.99724 51.7027 4.98269 51.3584 5.02391ZM52.7283 6.04607C53.2278 6.11629 53.9941 6.35617 54.1443 6.48939L54.2146 6.55483L54.1468 6.68083C54.108 6.7486 53.9892 6.92304 53.8776 7.06836C53.6231 7.405 52.7308 8.49261 52.641 8.57739C52.5416 8.66938 52.2797 8.78082 52.1173 8.80027C51.8118 8.83904 51.487 8.71549 51.2663 8.47561C51.196 8.4005 50.9657 8.12441 50.7523 7.86043C50.0394 6.98359 49.7727 6.60817 49.8019 6.52816C49.8261 6.46516 50.2989 6.2714 50.6966 6.16485C51.344 5.99041 52.0471 5.94674 52.7283 6.04607ZM49.4624 6.95447C49.9571 7.61333 50.7863 8.81959 50.8542 8.97947C50.9584 9.22658 50.6335 9.45912 50.425 9.28223C50.3208 9.19501 50.0903 8.90437 49.477 8.07597C48.8126 7.18212 48.8151 7.18457 48.8465 7.12157C48.8732 7.07068 49.2757 6.78493 49.3266 6.78004C49.329 6.78004 49.3897 6.85991 49.4624 6.95447ZM54.8305 6.8697C55.0245 7.00536 55.1506 7.10714 55.1652 7.14102C55.1822 7.18702 55.0828 7.33479 54.6002 7.97908C54.0691 8.68638 53.7322 9.11758 53.6109 9.24346C53.5261 9.33068 53.497 9.34756 53.417 9.34756C53.2206 9.34756 53.0848 9.18767 53.1308 9.01091C53.16 8.91158 54.4353 7.04402 54.6026 6.85747C54.668 6.78725 54.7142 6.7897 54.8305 6.8697ZM48.4853 7.55522C48.558 7.594 48.7762 7.89676 49.2539 8.62106C49.86 9.54157 49.9159 9.64322 49.9473 9.86855C49.9934 10.1834 49.8892 10.4911 49.6636 10.7164C49.5108 10.8689 49.3242 10.9538 48.238 11.3559C47.1421 11.7629 47.0523 11.7798 47.0208 11.6199C46.9869 11.4456 46.9773 10.9393 47.0038 10.6098C47.0862 9.5949 47.4669 8.64295 48.1264 7.81455C48.2865 7.6159 48.3738 7.53112 48.4198 7.53112C48.4319 7.531 48.4611 7.54311 48.4853 7.55522ZM55.7082 7.63265C56.1083 8.05652 56.4817 8.67427 56.7047 9.28223C56.9326 9.90965 57.0539 10.7647 56.9981 11.3436C56.9666 11.6705 56.935 11.7311 56.8066 11.7069C56.5448 11.6609 56.0332 11.4768 54.9227 11.0384C54.5057 10.8713 54.479 10.8592 54.3409 10.7186C54.1153 10.4933 54.0208 10.2438 54.0426 9.92898C54.0596 9.71821 54.1178 9.59233 54.4402 9.08847C55.1167 8.02997 55.4803 7.531 55.5749 7.531C55.5943 7.531 55.6525 7.577 55.7082 7.63265ZM51.2008 9.61411C51.2639 9.67711 51.2614 9.75943 51.1984 9.84176C51.065 10.0113 50.8226 9.79821 50.9486 9.61888C50.9972 9.54866 51.133 9.54622 51.2008 9.61411ZM53.0435 9.61411C53.1041 9.67466 53.1066 9.76188 53.0508 9.82732C53.0072 9.87821 52.9756 9.88787 52.881 9.8831C52.6871 9.87344 52.7259 9.56579 52.9223 9.56579C52.9636 9.56567 53.017 9.58744 53.0435 9.61411ZM52.2871 10.4111C52.5126 10.5273 52.6556 10.7477 52.6556 10.9827C52.6556 11.3606 52.3719 11.6488 52.0033 11.6488C51.6275 11.6488 51.3487 11.3727 51.3463 10.9996C51.3463 10.7065 51.5088 10.4788 51.7948 10.3698C51.9065 10.3263 52.1658 10.3481 52.2871 10.4111ZM50.6141 11.3485C50.6529 11.3751 50.6674 11.409 50.6674 11.472C50.6674 11.5859 50.6093 11.6489 50.505 11.6489C50.3425 11.6489 50.2722 11.4842 50.3886 11.3704C50.4565 11.3 50.5365 11.2927 50.6141 11.3485ZM53.6037 11.3532C53.6717 11.409 53.6765 11.5301 53.6134 11.6003C53.5479 11.673 53.4243 11.6658 53.3613 11.5858C53.2959 11.501 53.2982 11.4429 53.371 11.3702C53.4412 11.2976 53.5261 11.2927 53.6037 11.3532ZM49.8672 11.4913C50.0176 11.5689 50.0563 11.8038 49.94 11.9273C49.8697 12.0024 49.8309 12.017 48.8489 12.361C47.542 12.8164 47.4062 12.8575 47.3407 12.8066C47.3043 12.7752 47.1759 12.3706 47.1759 12.2785C47.1759 12.2518 47.205 12.2155 47.2437 12.1986C47.3189 12.1599 48.9118 11.6658 49.3337 11.5519C49.4864 11.5107 49.6247 11.472 49.6368 11.4671C49.6975 11.4478 49.8019 11.4575 49.8672 11.4913ZM54.5493 11.5156C54.9857 11.627 56.4817 12.0921 56.712 12.1865C56.8018 12.2253 56.826 12.2471 56.826 12.2931C56.826 12.3778 56.7097 12.7266 56.6612 12.7848L56.62 12.8357L56.4503 12.7897C56.2054 12.7218 54.7602 12.2229 54.3941 12.08C54.0668 11.9517 54.0232 11.9176 53.9965 11.7651C53.9723 11.6126 54.096 11.455 54.239 11.455C54.2778 11.455 54.4159 11.4817 54.5493 11.5156ZM52.1222 12.4482C52.1489 12.4748 52.1707 12.5233 52.1707 12.5572C52.1707 12.6347 52.0713 12.7388 51.9986 12.7388C51.8555 12.7388 51.7707 12.5159 51.8846 12.4385C51.9597 12.3852 52.0641 12.3901 52.1222 12.4482ZM50.5316 12.6662C50.6989 12.746 50.9438 12.9835 51.0165 13.1337C51.0965 13.296 51.1209 13.4801 51.1523 14.1438C51.2154 15.4251 51.2202 15.6407 51.1911 15.7716C51.1645 15.8902 51.1572 15.9 51.0868 15.9072C50.9025 15.9242 50.1533 15.6771 49.7144 15.4542C49.1204 15.1515 48.5045 14.6525 48.0972 14.1438C47.9614 13.9718 47.6219 13.4582 47.6001 13.3929C47.5759 13.3154 47.6437 13.2572 47.8523 13.1774C48.0462 13.1023 48.1699 13.0659 48.9701 12.8504C49.8114 12.6203 49.9497 12.5936 50.1946 12.6008C50.3644 12.6081 50.4396 12.6225 50.5316 12.6662ZM54.8112 12.8018C56.0259 13.1216 56.3338 13.2232 56.3969 13.3226C56.4308 13.3758 56.2853 13.6229 56.009 13.9911C55.4417 14.7444 54.7602 15.2749 53.9092 15.6333C53.6255 15.752 53.0558 15.9119 52.92 15.9119H52.8327L52.806 15.7593C52.7793 15.6091 52.789 15.2386 52.8496 14.0225C52.8763 13.4727 52.9005 13.3177 52.9854 13.136C53.0509 12.9979 53.2448 12.7873 53.3661 12.7218C53.5503 12.62 53.6401 12.5958 53.8291 12.5958C53.9941 12.5935 54.1274 12.6225 54.8112 12.8018ZM52.1683 13.1651C52.2095 13.199 52.2531 13.2668 52.2653 13.3154C52.2967 13.4317 52.3501 15.5027 52.3283 15.7619C52.3065 16.0162 52.2992 16.0211 51.955 15.9993C51.8167 15.9921 51.6955 15.9776 51.6883 15.9703C51.6689 15.9509 51.6689 14.3087 51.6883 13.7904C51.698 13.5603 51.7174 13.3349 51.7343 13.284C51.7925 13.1094 52.0253 13.044 52.1683 13.1651Z" fill="#858585"/>
<path d="M102.358 5.02391C102.034 5.06024 101.575 5.15223 101.263 5.24434C100.976 5.32667 100.441 5.5471 100.167 5.69487C99.8781 5.85231 99.4005 6.16718 99.1823 6.34406C98.9228 6.55728 98.353 7.15313 98.1688 7.40256C97.6013 8.1704 97.2352 9.03036 97.0557 10.0162C97.0072 10.2923 97 10.4013 97 10.9585C97.0024 11.6319 97.0291 11.9057 97.1455 12.3876C97.3201 13.124 97.691 13.9233 98.1639 14.5774C98.7361 15.3719 99.7471 16.1566 100.698 16.5491C101.229 16.7695 101.709 16.8906 102.344 16.9657C102.931 17.0384 103.767 16.9924 104.347 16.8567C105.208 16.6557 106.206 16.1566 106.856 15.5996C107.579 14.9819 108.083 14.3085 108.498 13.4075C108.687 12.9957 108.84 12.4797 108.929 11.9638C108.988 11.6173 109.017 10.9973 108.99 10.6194C108.959 10.164 108.951 10.1229 108.854 9.67466C108.704 8.99403 108.418 8.32307 108.025 7.72477C107.756 7.31301 107.523 7.03692 107.133 6.66138C106.221 5.78698 105.098 5.24434 103.787 5.04813C103.437 4.99724 102.703 4.98269 102.358 5.02391ZM103.728 6.04607C104.228 6.11629 104.994 6.35617 105.144 6.48939L105.215 6.55483L105.147 6.68083C105.108 6.7486 104.989 6.92304 104.878 7.06836C104.623 7.405 103.731 8.49261 103.641 8.57739C103.542 8.66938 103.28 8.78082 103.117 8.80027C102.812 8.83904 102.487 8.71549 102.266 8.47561C102.196 8.4005 101.966 8.12441 101.752 7.86043C101.039 6.98359 100.773 6.60817 100.802 6.52816C100.826 6.46516 101.299 6.2714 101.697 6.16485C102.344 5.99041 103.047 5.94674 103.728 6.04607ZM100.462 6.95447C100.957 7.61333 101.786 8.81959 101.854 8.97947C101.958 9.22658 101.634 9.45912 101.425 9.28223C101.321 9.19501 101.09 8.90437 100.477 8.07597C99.8126 7.18212 99.8151 7.18457 99.8465 7.12157C99.8732 7.07068 100.276 6.78493 100.327 6.78004C100.329 6.78004 100.39 6.85991 100.462 6.95447ZM105.831 6.8697C106.024 7.00536 106.151 7.10714 106.165 7.14102C106.182 7.18702 106.083 7.33479 105.6 7.97908C105.069 8.68638 104.732 9.11758 104.611 9.24346C104.526 9.33068 104.497 9.34756 104.417 9.34756C104.221 9.34756 104.085 9.18767 104.131 9.01091C104.16 8.91158 105.435 7.04402 105.603 6.85747C105.668 6.78725 105.714 6.7897 105.831 6.8697ZM99.4853 7.55522C99.558 7.594 99.7762 7.89676 100.254 8.62106C100.86 9.54157 100.916 9.64322 100.947 9.86855C100.993 10.1834 100.889 10.4911 100.664 10.7164C100.511 10.8689 100.324 10.9538 99.238 11.3559C98.1421 11.7629 98.0523 11.7798 98.0208 11.6199C97.9869 11.4456 97.9773 10.9393 98.0038 10.6098C98.0862 9.5949 98.4669 8.64295 99.1264 7.81455C99.2865 7.6159 99.3738 7.53112 99.4198 7.53112C99.4319 7.531 99.4611 7.54311 99.4853 7.55522ZM106.708 7.63265C107.108 8.05652 107.482 8.67427 107.705 9.28223C107.933 9.90965 108.054 10.7647 107.998 11.3436C107.967 11.6705 107.935 11.7311 107.807 11.7069C107.545 11.6609 107.033 11.4768 105.923 11.0384C105.506 10.8713 105.479 10.8592 105.341 10.7186C105.115 10.4933 105.021 10.2438 105.043 9.92898C105.06 9.71821 105.118 9.59233 105.44 9.08847C106.117 8.02997 106.48 7.531 106.575 7.531C106.594 7.531 106.653 7.577 106.708 7.63265ZM102.201 9.61411C102.264 9.67711 102.261 9.75943 102.198 9.84176C102.065 10.0113 101.823 9.79821 101.949 9.61888C101.997 9.54866 102.133 9.54622 102.201 9.61411ZM104.044 9.61411C104.104 9.67466 104.107 9.76188 104.051 9.82732C104.007 9.87821 103.976 9.88787 103.881 9.8831C103.687 9.87344 103.726 9.56579 103.922 9.56579C103.964 9.56567 104.017 9.58744 104.044 9.61411ZM103.287 10.4111C103.513 10.5273 103.656 10.7477 103.656 10.9827C103.656 11.3606 103.372 11.6488 103.003 11.6488C102.628 11.6488 102.349 11.3727 102.346 10.9996C102.346 10.7065 102.509 10.4788 102.795 10.3698C102.906 10.3263 103.166 10.3481 103.287 10.4111ZM101.614 11.3485C101.653 11.3751 101.667 11.409 101.667 11.472C101.667 11.5859 101.609 11.6489 101.505 11.6489C101.342 11.6489 101.272 11.4842 101.389 11.3704C101.456 11.3 101.537 11.2927 101.614 11.3485ZM104.604 11.3532C104.672 11.409 104.676 11.5301 104.613 11.6003C104.548 11.673 104.424 11.6658 104.361 11.5858C104.296 11.501 104.298 11.4429 104.371 11.3702C104.441 11.2976 104.526 11.2927 104.604 11.3532ZM100.867 11.4913C101.018 11.5689 101.056 11.8038 100.94 11.9273C100.87 12.0024 100.831 12.017 99.8489 12.361C98.542 12.8164 98.4062 12.8575 98.3407 12.8066C98.3043 12.7752 98.1759 12.3706 98.1759 12.2785C98.1759 12.2518 98.205 12.2155 98.2437 12.1986C98.3189 12.1599 99.9118 11.6658 100.334 11.5519C100.486 11.5107 100.625 11.472 100.637 11.4671C100.698 11.4478 100.802 11.4575 100.867 11.4913ZM105.549 11.5156C105.986 11.627 107.482 12.0921 107.712 12.1865C107.802 12.2253 107.826 12.2471 107.826 12.2931C107.826 12.3778 107.71 12.7266 107.661 12.7848L107.62 12.8357L107.45 12.7897C107.205 12.7218 105.76 12.2229 105.394 12.08C105.067 11.9517 105.023 11.9176 104.997 11.7651C104.972 11.6126 105.096 11.455 105.239 11.455C105.278 11.455 105.416 11.4817 105.549 11.5156ZM103.122 12.4482C103.149 12.4748 103.171 12.5233 103.171 12.5572C103.171 12.6347 103.071 12.7388 102.999 12.7388C102.856 12.7388 102.771 12.5159 102.885 12.4385C102.96 12.3852 103.064 12.3901 103.122 12.4482ZM101.532 12.6662C101.699 12.746 101.944 12.9835 102.017 13.1337C102.096 13.296 102.121 13.4801 102.152 14.1438C102.215 15.4251 102.22 15.6407 102.191 15.7716C102.164 15.8902 102.157 15.9 102.087 15.9072C101.903 15.9242 101.153 15.6771 100.714 15.4542C100.12 15.1515 99.5045 14.6525 99.0972 14.1438C98.9614 13.9718 98.6219 13.4582 98.6001 13.3929C98.5759 13.3154 98.6437 13.2572 98.8523 13.1774C99.0462 13.1023 99.1699 13.0659 99.9701 12.8504C100.811 12.6203 100.95 12.5936 101.195 12.6008C101.364 12.6081 101.44 12.6225 101.532 12.6662ZM105.811 12.8018C107.026 13.1216 107.334 13.2232 107.397 13.3226C107.431 13.3758 107.285 13.6229 107.009 13.9911C106.442 14.7444 105.76 15.2749 104.909 15.6333C104.626 15.752 104.056 15.9119 103.92 15.9119H103.833L103.806 15.7593C103.779 15.6091 103.789 15.2386 103.85 14.0225C103.876 13.4727 103.901 13.3177 103.985 13.136C104.051 12.9979 104.245 12.7873 104.366 12.7218C104.55 12.62 104.64 12.5958 104.829 12.5958C104.994 12.5935 105.127 12.6225 105.811 12.8018ZM103.168 13.1651C103.21 13.199 103.253 13.2668 103.265 13.3154C103.297 13.4317 103.35 15.5027 103.328 15.7619C103.307 16.0162 103.299 16.0211 102.955 15.9993C102.817 15.9921 102.696 15.9776 102.688 15.9703C102.669 15.9509 102.669 14.3087 102.688 13.7904C102.698 13.5603 102.717 13.3349 102.734 13.284C102.792 13.1094 103.025 13.044 103.168 13.1651Z" fill="#858585"/>
</svg>
